<?xml version="1.0" encoding="UTF-8"?>
<svg id="Layer_2" xmlns="http://www.w3.org/2000/svg" xmlns:xlink="http://www.w3.org/1999/xlink" viewBox="0 0 500 56.62">
  <defs>
    <style>
      .cls-1 {
        fill: none;
      }

      .cls-2 {
        fill: url(#linear-gradient);
        fill-rule: evenodd;
      }

      .cls-3 {
        clip-path: url(#clippath);
      }
    </style>
    <clipPath id="clippath">
      <path class="cls-1" d="M.8,34.1l-.8,7.23.8,7.23c0,.4.4.4.4.4.4,0,.4-.4.4-.4l1.2-7.23-1.2-7.23c0-.4-.4-.4-.4-.4,0,0-.4,0-.4.4M5.62,29.68l-1.2,11.65,1.2,11.65c0,.4.4.4.4.4.4,0,.4-.4.4-.4l1.61-11.65-1.61-11.65c0-.4-.4-.4-.4-.4l-.4.4ZM20.88,28.07l-.8,13.25.8,14.06c0,.4.4.8.8.8s.8-.4.8-.8l1.61-14.06-1.2-13.25c0-.4-.4-.8-.8-.8-.8,0-1.2.4-1.2.8M10.85,27.27l-1.2,14.06,1.2,13.25c0,.4.4.8.8.8,0,0,.4-.4.4-.8l1.2-13.25-1.2-14.06c0-.4-.4-.8-.8-.8,0,.4-.4.4-.4.8M15.67,26.87l-1.2,14.46,1.2,13.65c0,.4.4.8.8.8s.8-.4.8-.8l1.2-13.65-1.2-14.46c0-.4-.4-.8-.8-.8s-.4.4-.8.8M26.11,19.64l-1.2,21.69,1.2,14.06c0,.4.4.8.8.8.8,0,1.2-.4,1.2-.8l1.2-14.06-1.2-21.69c0-.4-.4-.8-.8-.8-.8,0-1.2.4-1.2.8M31.33,14.82l-.8,26.51.8,14.06c0,.8.4,1.2,1.2,1.2.4,0,1.2-.4,1.2-1.2l1.2-14.06-1.2-26.51c0-.8-.4-1.2-1.2-1.2s-1.2.4-1.2,1.2M279.12,13.21v23.29c-.4-.8-1.61-2.81-2.41-4.02l-12.85-19.28h-6.83v36.55h7.23v-24.1c.4.8,1.61,2.81,2.41,4.02l13.25,20.08h6.43V13.2h-7.23ZM303.22,20.44h4.02c7.63,0,10.84,3.61,10.84,11.24,0,6.83-3.61,11.24-11.24,11.24h-3.61v-22.49h-.01ZM295.99,49.76h10.84c9.24,0,18.88-5.22,18.88-18.07s-7.63-18.07-18.07-18.07h-11.65v-.4,36.55h0ZM367.88,13.21v36.55h22.09v-7.23h-14.46V13.21h-7.63ZM477.92,20.44h4.02c7.63,0,10.84,3.61,10.84,11.24,0,6.83-3.61,11.24-11.24,11.24h-3.61v-22.49h-.01ZM470.69,49.76h10.84c8.03,0,16.47-4.02,18.47-13.65v-9.24c-1.61-9.64-8.43-13.25-17.67-13.25h-11.65v-.4,36.55h0ZM146.59,23.66c0,7.23,4.82,9.24,11.24,10.84,6.83,1.61,8.03,2.41,8.03,4.82,0,2.81-2.01,4.02-6.43,4.02-3.61,0-6.83-1.2-9.24-4.02l-5.22,4.82c2.81,4.02,8.03,6.83,14.06,6.83,10.04,0,14.46-4.82,14.46-11.65,0-8.03-6.43-10.04-12.05-11.24-5.62-1.2-7.23-2.01-7.23-4.42,0-1.61,1.2-3.21,5.22-3.21,3.21,0,6.02,1.2,8.43,3.61l5.22-5.22c-3.61-3.61-7.63-5.62-13.25-5.62h-1.2c-6.83,0-12.05,4.02-12.05,10.44M186.74,31.69c0-6.43,2.41-11.65,8.43-11.65s8.43,5.22,8.43,11.65-2.41,11.65-8.43,11.65-8.43-5.22-8.43-11.65M179.11,31.69c0,11.24,6.02,18.88,15.66,18.88s16.06-7.63,16.06-18.88-6.02-18.88-16.06-18.88-15.66,7.63-15.66,18.88M240.56,12.81v20.88c0,6.02-2.81,9.64-7.63,9.64s-7.63-3.61-7.63-9.64V13.21h-7.23v20.48c0,10.44,6.02,16.47,14.86,16.47s14.86-6.02,14.86-16.87V12.81h-7.23,0ZM331.72,31.69c0,11.65,6.43,18.88,16.06,18.88,6.83,0,10.84-3.21,13.65-8.43l-6.02-3.61c-2.01,3.21-4.02,4.82-7.23,4.82-5.62,0-8.84-4.82-8.84-11.65s3.21-11.65,8.43-11.65c3.21,0,5.22,1.61,6.83,4.02l6.83-3.21c-2.41-4.82-6.43-8.03-13.25-8.03-9.64,0-16.47,7.63-16.47,18.88M400.79,31.71c0-6.43,2.41-11.65,8.43-11.65s8.43,5.22,8.43,11.65-2.41,11.65-8.43,11.65-8.43-5.22-8.43-11.65M393.16,31.71c0,11.24,6.02,18.88,15.66,18.88s15.66-7.63,15.66-18.88-6.02-18.88-15.66-18.88-15.66,7.63-15.66,18.88M454.2,12.83v20.88c0,6.02-2.81,9.64-7.63,9.64s-7.63-3.61-7.63-9.64V13.23h-7.23v20.48c0,10.44,6.02,16.47,14.86,16.47s14.86-6.02,14.86-16.87V12.83h-7.23,0ZM52.59,13.63l-.8,27.71.8,13.25c0,.8.8,1.61,1.61,1.61s1.61-.8,1.61-1.61l.8-13.25-.8-28.11c0-.8-.8-1.61-1.61-1.61-1.2.4-1.61.8-1.61,2.01M36.53,12.43l-.8,28.92.8,13.65c0,.8.4,1.2,1.2,1.2s1.2-.4,1.2-1.2l.8-13.65-.8-28.92c0-.8-.4-1.2-1.2-1.2s-1.2.8-1.2,1.2M46.97,12.43l-.8,28.92.8,13.65c0,.8.8,1.61,1.61,1.61s1.61-.8,1.61-1.61l.8-13.65-.8-28.92c0-.8-.8-1.61-1.61-1.61s-1.61.8-1.61,1.61M41.75,11.63l-.8,29.72.8,13.65c0,.8.4,1.2,1.2,1.2s1.2-.4,1.2-1.2l.8-13.65-.8-29.72c0-.8-.8-1.2-1.2-1.2s-1.2.4-1.2,1.2M57.81,8.02l-.8,33.33.8,13.25c0,.8.8,1.61,1.61,1.61s1.61-.8,1.61-1.61l.8-13.25-.8-33.33c0-.8-.8-1.61-1.61-1.61s-1.61.8-1.61,1.61M63.43,5.21l-.8,36.14.8,13.25c0,.8.8,1.61,1.61,1.61s1.61-.8,1.61-1.61l.8-13.25-.8-36.14c0-.8-.8-1.61-1.61-1.61h-.4c-.8,0-1.2.8-1.2,1.61M69.87,1.6c-1.2.4-1.61.8-1.61,2.01v51c0,.8.8,1.61,1.61,2.01h44.58c8.84,0,16.06-7.23,16.06-16.06s-7.23-16.06-16.06-16.06c-2.01,0-4.42.4-6.02,1.2-1.2-14.46-13.25-25.7-28.11-25.7h-2.01c-2.81,0-5.62.8-8.43,1.61h-.01Z"/>
    </clipPath>
    <linearGradient id="linear-gradient" x1="-519.95" y1="-102.58" x2="-518.95" y2="-102.58" gradientTransform="translate(-25356.61 129646.13) rotate(90) scale(249.62)" gradientUnits="userSpaceOnUse">
      <stop offset="0" stop-color="#595959"/>
      <stop offset=".71" stop-color="#595959"/>
      <stop offset="1" stop-color="#595959"/>
    </linearGradient>
  </defs>
  <g id="katman_1">
    <g class="cls-3">
      <path class="cls-2" d="M0-.03h500v56.63H0V-.03Z"/>
    </g>
  </g>
</svg>