<svg width="12" height="12" viewBox="0 0 12 12" fill="none" xmlns="http://www.w3.org/2000/svg">
<path d="M6.62417 2.698H2.67786V3.34229H6.62417V2.698Z" fill="#ABABAB"/>
<path d="M8.07684 2.83613L7.73129 2.46892L7.26208 2.91042L8.10688 3.80829L9.30966 2.36023L8.81403 1.94861L8.07684 2.83613Z" fill="#ABABAB"/>
<path d="M6.62417 4.71143H2.67786V5.35572H6.62417V4.71143Z" fill="#ABABAB"/>
<path d="M8.07684 4.84943L7.73129 4.48222L7.26208 4.92373L8.10688 5.82159L9.30966 4.37354L8.81403 3.96191L8.07684 4.84943Z" fill="#ABABAB"/>
<path d="M6.62417 6.72485H2.67786V7.36915H6.62417V6.72485Z" fill="#ABABAB"/>
<path d="M8.07684 6.86286L7.73129 6.49565L7.26208 6.93715L8.10688 7.83502L9.30966 6.38697L8.81403 5.97534L8.07684 6.86286Z" fill="#ABABAB"/>
<path d="M6.62417 8.73828H2.67786V9.38258H6.62417V8.73828Z" fill="#ABABAB"/>
<path d="M8.07684 8.87629L7.73129 8.50908L7.26208 8.95058L8.10688 9.84845L9.30966 8.40039L8.81403 7.98877L8.07684 8.87629Z" fill="#ABABAB"/>
<path d="M10.651 0.926174C10.651 0.414644 10.2364 0 9.72484 0H2.27517C1.76364 0 1.349 0.414644 1.349 0.926174V11.0738C1.349 11.5854 1.76364 12 2.27517 12H9.72484C10.2364 12 10.651 11.5854 10.651 11.0738V0.926174ZM10.0067 11.0738C10.0067 11.2295 9.88052 11.3557 9.72484 11.3557H2.27517C2.1195 11.3557 1.99329 11.2295 1.99329 11.0738V0.926174C1.99329 0.770497 2.1195 0.644295 2.27517 0.644295H9.72484C9.88052 0.644295 10.0067 0.770497 10.0067 0.926174V11.0738Z" fill="#ABABAB"/>
</svg>
