<svg width="12" height="12" viewBox="0 0 12 12" fill="none" xmlns="http://www.w3.org/2000/svg">
<g clip-path="url(#clip0_178_52)">
<path d="M11.8714 7.29073L5.95005 1.36942C5.90261 1.32193 5.84491 1.28601 5.78142 1.26435L3.28474 0.412468C3.12635 0.358445 2.95095 0.399155 2.83254 0.517538L1.98535 1.36471L0.749442 0.128828C0.57802 -0.0426171 0.300005 -0.0426171 0.128584 0.128828C-0.0428612 0.300273 -0.0428612 0.578241 0.128584 0.749686L1.36449 1.98557L0.517458 2.83262C0.399075 2.95098 0.358318 3.12638 0.412388 3.28482L1.26427 5.78145C1.28593 5.84496 1.32188 5.90267 1.36934 5.95013L7.29069 11.8714C7.46212 12.0429 7.74011 12.0429 7.91155 11.8714L11.8714 7.91158C12.0428 7.74014 12.0428 7.4622 11.8714 7.29073ZM5.32593 5.32601C4.8146 5.83739 3.9869 5.83742 3.4755 5.32601C2.96531 4.81583 2.96531 3.98574 3.47552 3.47556C3.98686 2.96417 4.81455 2.96415 5.32598 3.47556C5.83612 3.98574 5.83612 4.81583 5.32593 5.32601Z" fill="#DADADA"/>
</g>
<defs>
<clipPath id="clip0_178_52">
<rect width="12" height="12" fill="white"/>
</clipPath>
</defs>
</svg>
