<svg width="18" height="18" viewBox="0 0 18 18" fill="none" xmlns="http://www.w3.org/2000/svg">
<path fill-rule="evenodd" clip-rule="evenodd" d="M1.6875 9C1.6875 4.96142 4.96141 1.6875 9 1.6875C13.0386 1.6875 16.3125 4.96142 16.3125 9V11.0945C16.3711 11.0737 16.4342 11.0625 16.5 11.0625C16.8106 11.0625 17.0625 11.3144 17.0625 11.625V13.125C17.0625 13.4356 16.8106 13.6875 16.5 13.6875C16.1893 13.6875 15.9375 13.4356 15.9375 13.125V12.75H15.1875V9C15.1875 5.58274 12.4172 2.8125 9 2.8125C5.58274 2.8125 2.8125 5.58274 2.8125 9V12.75H2.0625V13.125C2.0625 13.4356 1.81066 13.6875 1.5 13.6875C1.18934 13.6875 0.9375 13.4356 0.9375 13.125V11.625C0.9375 11.3144 1.18934 11.0625 1.5 11.0625C1.56574 11.0625 1.62886 11.0737 1.6875 11.0945V9Z" fill="#ABABAB"/>
<path d="M6 10.5372C6 9.90022 6 9.58169 5.84274 9.36022C5.7636 9.24877 5.65855 9.15667 5.53595 9.09127C5.29234 8.96129 4.96331 8.99129 4.30525 9.05137C3.19639 9.15262 2.64195 9.20324 2.24464 9.48037C2.04355 9.62062 1.87474 9.79942 1.74881 10.0056C1.5 10.4129 1.5 10.9496 1.5 12.023V13.3277C1.5 14.3904 1.5 14.9218 1.75378 15.3321C1.84877 15.4857 1.96783 15.6242 2.10674 15.7428C2.47787 16.0594 3.0196 16.1584 4.10305 16.3562C4.86549 16.4954 5.24672 16.565 5.52808 16.4184C5.6319 16.3643 5.72366 16.291 5.79815 16.2028C6 15.9637 6 15.5898 6 14.842V10.5372Z" fill="#ABABAB"/>
<path d="M12 10.5372C12 9.90022 12 9.58169 12.1573 9.36022C12.2364 9.24877 12.3415 9.15667 12.464 9.09127C12.7076 8.96129 13.0367 8.99129 13.6948 9.05137C14.8037 9.15262 15.3581 9.20324 15.7554 9.48037C15.9565 9.62062 16.1252 9.79942 16.2511 10.0056C16.5 10.4129 16.5 10.9496 16.5 12.023V13.3277C16.5 14.3904 16.5 14.9218 16.2462 15.3321C16.1513 15.4857 16.0322 15.6242 15.8933 15.7428C15.5222 16.0594 14.9804 16.1584 13.897 16.3562C13.1345 16.4954 12.7533 16.565 12.4719 16.4184C12.3681 16.3643 12.2764 16.291 12.2018 16.2028C12 15.9637 12 15.5898 12 14.842V10.5372Z" fill="#ABABAB"/>
</svg>
