<svg width="16" height="16" viewBox="0 0 16 16" fill="none" xmlns="http://www.w3.org/2000/svg">
<path d="M13.45 7.84998C13.4 7.64998 13.2 7.49998 13 7.49998H9.99997L11.95 1.64998C12 1.44998 11.95 1.19998 11.75 1.09998C11.55 0.94998 11.35 0.99998 11.15 1.09998L2.64997 7.59998C2.49997 7.74998 2.39997 7.94998 2.49997 8.14998C2.59997 8.34998 2.79997 8.49998 2.99997 8.49998H5.99997L4.04997 14.35C3.99997 14.55 4.04997 14.8 4.24997 14.9C4.29997 14.95 4.39997 15 4.49997 15C4.59997 15 4.69997 14.95 4.79997 14.9L13.3 8.39998C13.45 8.24998 13.55 8.04998 13.45 7.84998Z" fill="#ABABAB"/>
</svg>
