<svg width="19" height="13" viewBox="0 0 19 13" fill="none" xmlns="http://www.w3.org/2000/svg">
<path d="M8.98047 11.2744C9.02619 11.3118 9.07606 11.3521 9.12238 11.389C8.19197 12.0106 7.07275 12.3692 5.87278 12.3692C2.62853 12.3692 0 9.74427 0 6.50002C0 3.25874 2.62853 0.630798 5.86922 0.630798C7.07275 0.630798 8.19197 0.989424 9.12 1.60752C9.07309 1.64789 9.02678 1.68827 8.98938 1.72864C7.60178 2.92802 6.80378 4.66949 6.80378 6.50002C6.80378 8.33055 7.59881 10.072 8.98106 11.2744H8.98047ZM13.1308 0.630798C11.9243 0.630798 10.808 0.989424 9.88 1.60752C9.92691 1.64789 9.97322 1.68827 10.0106 1.72864C11.3982 2.92802 12.1962 4.66949 12.1962 6.50002C12.1962 8.32817 11.4012 10.069 10.0189 11.2744C9.97322 11.3118 9.92334 11.3521 9.87703 11.389C10.8074 12.0106 11.9237 12.3692 13.1266 12.3692C16.3709 12.3692 18.9994 9.74427 18.9994 6.50002C18.9994 3.25874 16.3715 0.630798 13.1308 0.630798ZM9.5 1.88955C9.42222 1.94833 9.35097 2.00652 9.27734 2.07183C8.03997 3.1483 7.258 4.73183 7.258 6.50061C7.258 8.26939 8.03997 9.85233 9.27734 10.9294C9.34859 10.9941 9.42519 11.0559 9.5 11.1146C9.57778 11.0559 9.64903 10.9941 9.72266 10.9294C10.96 9.85292 11.742 8.26939 11.742 6.50061C11.742 4.73183 10.96 3.14889 9.72266 2.07183C9.65141 2.00711 9.57778 1.94833 9.5 1.88955Z" fill="#595959"/>
</svg>
