<svg width="11" height="12" viewBox="0 0 11 12" fill="none" xmlns="http://www.w3.org/2000/svg">
<g clip-path="url(#clip0_117_56)">
<path fill-rule="evenodd" clip-rule="evenodd" d="M9.88651 3.53994C9.21845 6.67014 7.18062 7.2 4.44327 7.2L3.61799 12H5.12898C5.40426 12 5.51956 11.7955 5.57031 11.5075C5.9471 8.90892 5.89414 9.33414 5.92835 8.92734C5.96089 8.70054 6.14073 8.4 6.35202 8.4C8.35896 8.4 9.69013 7.76712 10.0967 5.49492C10.2412 4.68672 10.1938 4.06314 9.88651 3.53994ZM3.64888 7.11592L3.03157 10.8H1.11951C0.938569 10.8 0.800101 10.5588 0.828787 10.3644L2.25648 0.450586C2.294 0.191386 2.49977 0 2.7414 0H6.16997C8.20008 0 9.5671 0.84072 9.251 3.03252C8.69768 6.93612 5.63044 6.6 4.23474 6.6C3.99311 6.6 3.68694 6.85672 3.64888 7.11592Z" fill="#595959"/>
</g>
<defs>
<clipPath id="clip0_117_56">
<rect width="11" height="12" fill="white"/>
</clipPath>
</defs>
</svg>
