<svg width="17" height="17" viewBox="0 0 17 17" fill="none" xmlns="http://www.w3.org/2000/svg">
<g clip-path="url(#clip0_135_16)">
<path d="M15.8829 2.37928C15.8524 2.1601 15.6946 1.9798 15.4815 1.92054L8.64887 0.0203944C8.55146 -0.00671674 8.44857 -0.00671674 8.35109 0.0203944L1.5185 1.92054C1.30531 1.9798 1.14761 2.16002 1.11709 2.37928C1.07746 2.66425 0.173387 9.39728 2.49228 12.7468C4.80842 16.0922 8.22524 16.9496 8.36954 16.9845C8.41243 16.9948 8.45613 16.9999 8.49998 16.9999C8.54383 16.9999 8.58754 16.9948 8.63043 16.9845C8.7748 16.9496 12.1916 16.0922 14.5077 12.7468C16.8266 9.39736 15.9225 2.66432 15.8829 2.37928ZM12.9061 6.3101L8.24561 10.9706C8.13717 11.0791 7.99494 11.1334 7.8528 11.1334C7.71065 11.1334 7.56843 11.0791 7.45998 10.9706L4.57842 8.08906C4.4742 7.98491 4.41568 7.84358 4.41568 7.69625C4.41568 7.54891 4.47428 7.40758 4.57842 7.30343L5.15057 6.73128C5.36754 6.51439 5.71931 6.51432 5.9362 6.73128L7.8528 8.64788L11.5484 4.95225C11.6525 4.84802 11.7938 4.78951 11.9412 4.78951C12.0885 4.78951 12.2298 4.84802 12.334 4.95225L12.9061 5.52439C13.1231 5.74136 13.1231 6.09313 12.9061 6.3101Z" fill="#ABABAB"/>
</g>
<defs>
<clipPath id="clip0_135_16">
<rect width="17" height="17" fill="white"/>
</clipPath>
</defs>
</svg>
