<svg width="41" height="18" viewBox="0 0 41 18" fill="none" xmlns="http://www.w3.org/2000/svg">
<path fill-rule="evenodd" clip-rule="evenodd" d="M22.1271 2.89897L19.3863 3.50042V1.22828L22.1271 0.637939V2.89897ZM27.8271 4.15749C26.757 4.15749 26.069 4.6699 25.6868 5.02625L25.5448 4.33577H23.1426V17.3225L25.8725 16.7323L25.8834 13.5802C26.2765 13.8698 26.8552 14.2819 27.8161 14.2819C29.7707 14.2819 31.5506 12.678 31.5506 9.14735C31.5396 5.91732 29.738 4.15749 27.8271 4.15749ZM27.1719 11.8316C26.5276 11.8316 26.1454 11.5977 25.8834 11.308L25.8725 7.17594C26.1564 6.85291 26.5495 6.63011 27.1719 6.63011C28.1655 6.63011 28.8535 7.76618 28.8535 9.22528C28.8535 10.7178 28.1764 11.8316 27.1719 11.8316ZM40.1552 9.2587C40.1552 6.40742 38.8011 4.15749 36.2132 4.15749C33.6143 4.15749 32.0419 6.40742 32.0419 9.23639C32.0419 12.589 33.8983 14.2819 36.5626 14.2819C37.8621 14.2819 38.8449 13.9811 39.5874 13.558V11.3304C38.8449 11.709 37.9931 11.9429 36.9121 11.9429C35.8529 11.9429 34.9138 11.5642 34.7937 10.25H40.1334C40.1334 10.1886 40.1373 10.0491 40.1418 9.88845C40.1479 9.67018 40.1552 9.41269 40.1552 9.2587ZM34.7609 8.20056C34.7609 6.94204 35.5144 6.41853 36.2023 6.41853C36.8685 6.41853 37.5782 6.94204 37.5782 8.20056H34.7609ZM19.3863 4.34687H22.1271V14.0926H19.3863V4.34687ZM16.2742 4.34687L16.4489 5.17111C17.0931 3.96821 18.3707 4.21322 18.7201 4.34687V6.90863C18.3816 6.78608 17.2896 6.63011 16.6454 7.48777V14.0926H13.9155V4.34687H16.2742ZM10.9891 1.92997L8.32472 2.50911L8.31381 11.4306C8.31381 13.079 9.52585 14.2931 11.142 14.2931C12.0374 14.2931 12.6926 14.126 13.0529 13.9255V11.6645C12.7035 11.8093 10.9782 12.3217 10.9782 10.6732V6.71925H13.0529V4.34687H10.9782L10.9891 1.92997ZM4.5357 6.57449C3.95695 6.57449 3.60748 6.74156 3.60748 7.17594C3.60748 7.65022 4.20883 7.85876 4.95494 8.11762C6.1712 8.53961 7.77202 9.09497 7.7788 11.1522C7.7788 13.1458 6.21729 14.2931 3.94604 14.2931C3.00692 14.2931 1.98052 14.1037 0.964961 13.6582V11.0073C1.88225 11.5197 3.03964 11.8984 3.94604 11.8984C4.55751 11.8984 4.99425 11.7313 4.99425 11.219C4.99425 10.6936 4.34239 10.4535 3.55539 10.1636C2.35682 9.72207 0.844849 9.16514 0.844849 7.30959C0.844849 5.33818 2.31899 4.15749 4.5357 4.15749C5.442 4.15749 6.33739 4.30235 7.24369 4.6699V7.28728C6.41385 6.8306 5.36554 6.57449 4.5357 6.57449Z" fill="#595959"/>
</svg>
