<svg width="35" height="11" viewBox="0 0 35 11" fill="none" xmlns="http://www.w3.org/2000/svg">
<path d="M25.2541 0.692751C24.46 0.403377 23.6206 0.258168 22.7754 0.263961C20.042 0.263961 18.1116 1.64088 18.0979 3.61742C18.0809 5.0695 19.4697 5.88779 20.5204 6.37296C21.5983 6.87179 21.9588 7.18613 21.9554 7.632C21.9485 8.31021 21.0944 8.61771 20.3 8.61771C19.2084 8.61771 18.6121 8.46567 17.6948 8.08471L17.3548 7.92584L16.967 10.2013C17.6316 10.4781 18.8291 10.7155 20.0659 10.736C22.9718 10.736 24.8715 9.36767 24.8937 7.26471C24.9176 6.10475 24.1659 5.22838 22.584 4.50404C21.6222 4.03425 21.026 3.71992 21.026 3.24329C21.026 2.82133 21.5368 2.37034 22.6045 2.37034C23.3151 2.35314 24.0213 2.48646 24.6767 2.76154L24.933 2.876L25.3208 0.677377L25.2541 0.692751ZM32.3471 0.44846H30.2117C29.5472 0.44846 29.0466 0.631252 28.7562 1.29067L24.6494 10.5943H27.5553L28.1361 9.06871L31.6826 9.07213C31.7663 9.42917 32.0226 10.5943 32.0226 10.5943H34.5851L32.3471 0.44846ZM14.1671 0.363043H16.9363L15.204 10.514H12.4382L14.1671 0.359627V0.363043ZM7.13727 5.95783L7.42427 7.36721L10.1303 0.44846H13.0635L8.70552 10.5806H5.77914L3.38748 2.00133C3.34874 1.85987 3.25777 1.73837 3.13294 1.66138C2.27091 1.21608 1.35754 0.878153 0.413269 0.655168L0.450852 0.441626H4.90789C5.51264 0.465543 5.99952 0.655168 6.16181 1.30092L7.13556 5.96296L7.13727 5.95783ZM28.9305 6.99308L30.0341 4.15383C30.0204 4.18458 30.2613 3.56788 30.4014 3.18692L30.591 4.06329L31.2316 6.99138H28.9288L28.9305 6.99308Z" fill="#595959"/>
</svg>
