<svg width="20" height="20" viewBox="0 0 20 20" fill="none" xmlns="http://www.w3.org/2000/svg">
<path d="M18.2857 9.96587L19.3613 11.0239L19.8319 11.5017C19.9328 11.6041 19.9664 11.7065 19.9664 11.843V18.1229C19.9664 18.2594 19.9328 18.3618 19.8319 18.4642C19.3613 18.9079 18.8908 19.3857 18.4538 19.8635C18.3529 19.9659 18.2857 20 18.1513 20H0V0H18.084C18.2521 0 18.3529 0.0341297 18.4874 0.170648L19.8655 1.56997C19.8992 1.6041 19.9328 1.63823 19.9664 1.70648C20 1.74061 20 1.80887 20 1.87713V8.25939C20 8.36178 19.9664 8.46416 19.8655 8.53242C19.395 8.97611 18.958 9.4198 18.521 9.89761C18.4202 9.82935 18.3529 9.89761 18.2857 9.96587ZM15.7647 16.6212C15.7647 16.587 15.7647 16.5529 15.7983 16.5529V12.5939C15.7983 12.4915 15.7647 12.4573 15.6975 12.3891C15.4958 12.1843 15.2941 12.0137 15.0924 11.8089C14.9916 11.7065 14.9244 11.6724 14.7899 11.6724H12.1345C12.1681 11.7747 12.1681 11.843 12.2017 11.9454C12.5042 12.8328 12.8067 13.7543 13.1092 14.6416C13.1092 14.6758 13.1429 14.744 13.1429 14.8123L9.71429 12.6621L6.28571 14.8123L6.2521 14.7782C6.68908 13.4812 7.09244 12.2184 7.52941 10.9215L4.13445 8.36178V16.6212H15.7647ZM4.13445 8.29352H8.20168C8.33613 8.29352 8.42577 8.22526 8.47059 8.08874C8.84034 6.92833 9.2437 5.76792 9.61345 4.60751C9.64706 4.53925 9.64706 4.47099 9.71429 4.3686C10.1513 5.69966 10.5882 6.99659 11.0252 8.25939H14.8571C14.958 8.25939 15.0252 8.22526 15.0924 8.157L15.6975 7.54266C15.7311 7.50853 15.7647 7.4744 15.7983 7.40614C15.8319 7.33788 15.8319 7.30375 15.8319 7.2355V3.27645C15.7983 3.27645 15.7983 3.24232 15.7647 3.24232H4.23529L4.20168 3.27645L4.13445 8.29352Z" fill="white"/>
</svg>
