<svg width="14" height="11" viewBox="0 0 14 11" fill="none" xmlns="http://www.w3.org/2000/svg">
<path d="M11.8534 0H1.93537C1.60714 0.0018008 1.29289 0.128617 1.06078 0.352943C0.828689 0.577275 0.697481 0.881008 0.695618 1.19825V9.41482C0.697481 9.73204 0.828689 10.0358 1.06078 10.2601C1.29289 10.4845 1.60714 10.6113 1.93537 10.6131H11.8534C12.1816 10.6113 12.4958 10.4845 12.7279 10.2601C12.9601 10.0358 13.0913 9.73204 13.0931 9.41482V1.19825C13.0913 0.881008 12.9601 0.577275 12.7279 0.352943C12.4958 0.128617 12.1816 0.0018008 11.8534 0ZM1.93537 1.02707H11.8534C11.9003 1.02707 11.9454 1.04511 11.9786 1.07721C12.0118 1.10931 12.0305 1.15285 12.0305 1.19825V2.25271L6.89436 4.73137L1.75826 2.25271V1.19825C1.75826 1.15285 1.77692 1.10931 1.81013 1.07721C1.84335 1.04511 1.8884 1.02707 1.93537 1.02707ZM11.8534 9.58599H1.93537C1.8884 9.58599 1.84335 9.56799 1.81013 9.53587C1.77692 9.50376 1.75826 9.46021 1.75826 9.41482V3.39618L6.65349 5.76529C6.7283 5.80144 6.81077 5.82027 6.89436 5.82027C6.97795 5.82027 7.06042 5.80144 7.13523 5.76529L12.0305 3.39618V9.41482C12.0305 9.46021 12.0118 9.50376 11.9786 9.53587C11.9454 9.56799 11.9003 9.58599 11.8534 9.58599Z" fill="#ABABAB"/>
</svg>
